# xmcd
#
# Track frame offsets:
#	150
#	14430
#	27843
#	41633
#	57135
#	70508
#	86128
#	101098
#	116288
#	129453
#	143330
#	156070
#	167005
#	182853
#	195835
#	209443
#	224273
#	237788
#	252628
#	276545
#	284858
#	301510
#	314618
#
# Disc length: 4364
#
# Revision: 2
# Processed by: cddbd v1.5.1PL0 Copyright (c) Steve Scherf et al.
# Submitted via: ExactAudioCopy v0.90b4
# Normalized: r1:DSETVAR1
#
DISCID=4b110a17
DTITLE=Various Artist - Fats Waller and Andy Razaf - American Songbook Series 21
DYEAR=1994
DGENRE=Pop
TTITLE0=Ted Lewis and His Band with Fats Waller - I'm Crazy 'Bout my Baby
TTITLE1=Bing Crosby - Louisiana
TTITLE2=Ethel Waters - (What did I do to be so) Black and Blue
TTITLE3=Andy Razaf - A Porter's Love Song to a Chambermaid
TTITLE4=Annette Hanshaw - I've got a feeling I'm falling
TTITLE5=Benny Goodman and His Orchestra featuring Jack Teagarden - Ain'tcha Glad
TTITLE6=Mildred Bailey and Her Alley Cats - Willow Tree
TTITLE7=Joe Haymes and His Orchestra - If It Ain't Love
TTITLE8=Fats Waller and His Rhythm - Christopher Columbus
TTITLE9=Boswell Sisters - It's You
TTITLE10=Phil Harris and His Orchestra - That's What I Like 'Bout the South
TTITLE11=Judy Garland - Stompin' at the Savoy
TTITLE12=Ray Noble and His Orchestra - Big Chief de Sota
TTITLE13=Lena Horne - Honeysuckle Rose
TTITLE14=Frankie Laine - Blue Turning Grey Over You
TTITLE15=Vaughn Monroe and His Orchestra - Memories of You
TTITLE16=Sarah Vaughan - Ain't Misbehavin'
TTITLE17=Maxine Sullivan - S'posin'
TTITLE18=Louis Armstrong and Velma Middleton - All that Meat and No Potatoes
TTITLE19=Dinah Washington - Jitterbug Waltz
TTITLE20=Lee Wiley - You're Lucky to Me
TTITLE21=Sammy Davis, Jr. - Keeping out of Mischief Now
TTITLE22=Helen Merrill - Gee Baby, Ain't I Good to You
EXTD=YEAR: 1994
EXTT0=
EXTT1=
EXTT2=
EXTT3=
EXTT4=
EXTT5=
EXTT6=
EXTT7=
EXTT8=
EXTT9=
EXTT10=
EXTT11=
EXTT12=
EXTT13=
EXTT14=
EXTT15=
EXTT16=
EXTT17=
EXTT18=
EXTT19=
EXTT20=
EXTT21=
EXTT22=
PLAYORDER=
